<svg width="628" height="628" viewBox="0 0 628 628" fill="none" xmlns="http://www.w3.org/2000/svg">
<g filter="url(#filter0_f_302_81)">
<circle cx="314" cy="314" r="310" fill="#D9D9D9" fill-opacity="0.3"/>
<circle cx="314" cy="314" r="301.5" stroke="#7F7FA0" stroke-width="17"/>
</g>
<g clip-path="url(#clip0_302_81)">
<path d="M397.896 337.114C387.095 343.162 367.851 350.741 348.186 342.953L335.475 337.918L360.948 311.257C340.62 290.331 329.375 263.083 329.406 234.832C329.437 206.581 340.742 179.354 361.116 158.467C381.489 137.579 409.468 124.53 439.591 121.866C469.715 119.202 499.82 127.114 524.032 144.059C548.243 161.003 564.823 185.763 570.535 213.506C576.247 241.249 570.68 269.984 554.923 294.102C539.165 318.219 514.347 335.989 485.312 343.942C456.278 351.895 425.111 349.461 397.896 337.114ZM349.088 234.768C349.032 247.791 351.863 260.684 357.402 272.636C362.942 284.588 371.071 295.341 381.277 304.218L388.304 310.383L372.274 327.159C380.624 325.577 387.896 321.36 391.583 318.911L396.643 315.549L402.085 318.341C417.127 326.031 434 330.06 451.149 330.059C507.425 330.059 553.21 287.312 553.21 234.768C553.21 182.225 507.425 139.477 451.149 139.477C394.873 139.477 349.088 182.225 349.088 234.768Z" fill="#3F3D56"/>
<path d="M339.193 234.768C339.193 177.038 389.318 130.239 451.149 130.239C512.981 130.239 563.105 177.038 563.105 234.768C563.105 292.498 512.981 339.297 451.149 339.297C432.331 339.323 413.812 334.899 397.32 326.439C389.581 331.58 370.701 341.834 352.05 334.448L374.501 310.95C363.341 301.187 354.448 289.387 348.374 276.282C342.301 263.178 339.176 249.047 339.193 234.768Z" fill="#7F7FA0"/>
<path opacity="0.1" d="M544.033 234.995C544.033 180.379 499.168 135.554 441.972 130.876C445.233 130.61 448.532 130.465 451.867 130.465C513.699 130.465 563.823 177.265 563.823 234.995C563.823 292.724 513.699 339.524 451.867 339.524C448.537 339.524 445.244 339.378 441.988 339.112C499.176 334.427 544.033 289.605 544.033 234.995Z" fill="black"/>
<path d="M193.159 482.328C165.185 482.34 138.056 473.375 116.319 456.934C94.5824 440.493 79.5585 417.576 73.7653 392.024C67.9721 366.472 71.7618 339.836 84.4991 316.582C97.2364 293.328 118.147 274.868 143.728 264.296C169.308 253.724 198.003 251.683 225.003 258.514C252.004 265.344 275.669 280.633 292.034 301.816C308.398 322.999 316.467 348.791 314.888 374.868C313.309 400.945 302.178 425.723 283.36 445.049L308.834 471.71L296.122 476.745C276.457 484.532 257.213 476.954 246.412 470.906C229.813 478.42 211.606 482.325 193.159 482.328ZM193.159 273.269C136.883 273.269 91.0983 316.017 91.0983 368.56C91.0983 421.103 136.883 463.85 193.159 463.85C210.308 463.852 227.181 459.822 242.223 452.133L247.665 449.341L252.725 452.703C256.412 455.152 263.684 459.369 272.034 460.951L256.004 444.174L263.031 438.009C273.237 429.133 281.366 418.38 286.906 406.428C292.445 394.476 295.276 381.583 295.22 368.56C295.22 316.017 249.435 273.269 193.159 273.269Z" fill="#3F3D56"/>
<path d="M305.115 368.56C305.115 310.83 254.99 264.03 193.159 264.03C131.327 264.03 81.2031 310.83 81.2031 368.56C81.2031 426.29 131.327 473.089 193.159 473.089C211.977 473.115 230.496 468.691 246.988 460.231C254.727 465.372 273.607 475.626 292.258 468.239L269.807 444.742C280.967 434.979 289.86 423.179 295.934 410.074C302.007 396.969 305.132 382.839 305.115 368.56Z" fill="#7F7FA0"/>
<path opacity="0.1" d="M100.993 368.032C100.993 313.416 145.858 268.591 203.054 263.914C199.793 263.647 196.494 263.503 193.159 263.503C131.327 263.503 81.2031 310.302 81.2031 368.032C81.2031 425.762 131.327 472.561 193.159 472.561C196.489 472.561 199.782 472.415 203.038 472.149C145.85 467.464 100.993 422.643 100.993 368.032Z" fill="black"/>
<path d="M477.432 201.559C470.107 190.003 455.615 189.464 455.615 189.464C455.615 189.464 441.493 187.778 432.434 205.378C423.99 221.783 412.337 237.622 430.558 241.463L433.849 231.898L435.887 242.175C438.482 242.349 441.084 242.39 443.683 242.299C463.196 241.711 481.78 242.471 481.182 235.933C480.386 227.242 484.48 212.678 477.432 201.559Z" fill="#2F2E41"/>
<path d="M429.517 302.761C429.302 304.033 428.99 305.288 428.583 306.517C428.125 307.721 427.417 308.833 426.998 310.049C425.662 313.925 427.514 318.246 430.472 321.237C433.037 323.821 436.348 325.657 440.006 326.523C442.698 327.061 445.445 327.331 448.198 327.327C455.813 327.568 463.624 327.784 470.84 325.499C473.119 324.759 475.321 323.825 477.417 322.709C478.079 322.414 478.662 321.986 479.124 321.454C479.608 320.675 479.823 319.777 479.74 318.88C479.724 315.866 479.07 312.867 479.225 309.857C479.311 308.189 479.645 306.523 479.481 304.861C479.253 302.973 478.406 301.196 477.055 299.775C475.705 298.354 473.917 297.357 471.936 296.921C469.889 296.511 467.766 296.734 465.682 296.921C460.273 297.407 454.841 297.634 449.407 297.601C443.854 297.568 438.336 296.777 432.812 296.694C431.178 296.669 431.211 297.14 430.691 298.616C430.212 299.975 429.82 301.359 429.517 302.761Z" fill="#2F2E41"/>
<path d="M445.274 228.339C445.007 229.643 444.719 230.995 443.88 232.067C442.914 233.301 441.339 234.005 440.299 235.186C438.735 236.962 438.646 239.462 438.639 241.762C438.633 243.881 438.679 246.14 439.945 247.899C440.845 248.991 441.963 249.911 443.237 250.609C447.982 253.595 453.11 256.634 458.832 256.733C461.202 256.774 463.744 256.202 465.304 254.535C465.978 253.752 466.507 252.869 466.871 251.924C468.334 248.557 469.221 244.996 469.499 241.372C469.71 239.668 469.54 237.942 468.999 236.303C468.304 234.494 466.898 233.005 465.969 231.289C464.871 229.249 464.47 226.944 464.819 224.685C464.865 224.526 464.851 224.356 464.778 224.206C464.702 224.125 464.607 224.063 464.5 224.022C464.393 223.982 464.278 223.965 464.163 223.973L452.818 223.211C451.762 223.162 450.71 223.049 449.668 222.874C449.057 222.758 447.442 221.947 446.858 222.163C445.779 222.562 445.496 227.257 445.274 228.339Z" fill="#A0616A"/>
<path opacity="0.1" d="M445.274 228.669C445.007 229.974 444.719 231.326 443.88 232.398C442.914 233.631 441.339 234.336 440.299 235.516C438.735 237.293 438.646 239.793 438.639 242.093C438.633 244.211 438.679 246.471 439.945 248.23C440.845 249.322 441.963 250.242 443.237 250.94C447.982 253.925 453.11 256.965 458.832 257.063C461.202 257.104 463.744 256.533 465.304 254.865C465.978 254.082 466.507 253.2 466.871 252.255C468.334 248.888 469.221 245.327 469.499 241.703C469.71 239.999 469.539 238.273 468.999 236.634C468.304 234.824 466.898 233.336 465.969 231.62C464.871 229.58 464.47 227.275 464.819 225.015C464.865 224.856 464.851 224.687 464.778 224.537C464.702 224.456 464.607 224.393 464.5 224.353C464.393 224.312 464.278 224.296 464.163 224.304L452.818 223.541C451.762 223.492 450.71 223.38 449.668 223.205C449.057 223.089 447.442 222.278 446.858 222.493C445.779 222.893 445.496 227.588 445.274 228.669Z" fill="black"/>
<path d="M456.124 229.759C465.316 229.759 472.768 222.802 472.768 214.219C472.768 205.636 465.316 198.679 456.124 198.679C446.931 198.679 439.479 205.636 439.479 214.219C439.479 222.802 446.931 229.759 456.124 229.759Z" fill="#A0616A"/>
<path d="M447.609 249.025C448.431 249.914 449.422 250.654 450.532 251.206C451.689 251.653 452.932 251.874 454.184 251.856C457.185 251.934 460.437 251.421 462.524 249.407C465.215 246.811 465.126 242.624 467.235 239.595C467.405 239.321 467.637 239.084 467.915 238.901C468.268 238.722 468.668 238.636 469.07 238.653C471.734 238.63 474.054 240.243 476.148 241.78C477.133 242.413 477.979 243.217 478.639 244.149C479.053 244.903 479.336 245.714 479.479 246.551C480.518 251.287 480.854 256.129 481.188 260.953C481.373 263.618 481.557 266.285 481.544 268.955C481.499 277.752 479.309 286.402 477.131 294.96C476.85 296.063 476.466 297.296 475.392 297.824C474.913 298.025 474.399 298.142 473.875 298.17C467.637 298.854 461.387 299.539 455.107 299.629C452.657 299.664 450.207 299.609 447.759 299.463C447.337 299.458 446.919 299.389 446.521 299.261C445.98 299.019 445.515 298.65 445.171 298.191C441.775 294.195 441.574 288.67 441.596 283.568C441.649 271.094 442.126 258.631 443.028 246.177C443.102 245.149 443.118 243.901 442.325 243.092C443.87 245.23 445.64 247.217 447.609 249.025Z" fill="white"/>
<path d="M444.083 231.082C443.521 232.032 439.376 234.391 438.576 235.179C434.106 239.578 425.947 239.413 421.858 244.125C420.419 245.783 419.672 247.866 419.122 249.937C418.345 252.867 417.93 256.061 419.232 258.823C420.485 261.481 423.123 263.318 424.914 265.692C426.881 268.298 427.765 271.463 428.612 274.552C429.238 276.832 429.869 279.169 429.625 281.512C429.348 284.176 427.967 286.616 427.152 289.182C426.337 291.748 426.196 294.804 428.081 296.82C429.466 298.302 431.638 298.889 433.714 299.22C436.373 299.593 439.055 299.811 441.743 299.872C444.116 299.97 446.732 299.989 448.557 298.569C449.996 297.448 450.622 295.629 450.703 293.88C450.784 292.132 450.394 290.399 450.15 288.664C449.897 286.865 449.8 285.05 449.719 283.238C449.354 275.104 449.304 266.966 449.569 258.822C449.703 257.129 449.614 255.428 449.305 253.755C448.796 251.577 447.535 249.63 446.482 247.628C444.379 243.858 443.427 239.621 443.729 235.38C444.048 231.021 446.083 227.701 444.083 231.082Z" fill="white"/>
<path d="M467.456 231.412C468.312 232.234 471.222 232.505 472.311 233.034C473.335 233.476 474.405 233.822 475.502 234.066C479.475 235.136 483.255 236.755 486.714 238.87C487.433 239.263 488.068 239.775 488.589 240.382C489.138 241.215 489.491 242.147 489.626 243.117C490.16 245.583 490.696 248.08 490.576 250.594C490.448 253.262 489.588 255.847 488.734 258.396L485.542 267.921C483.16 275.032 480.763 282.212 480.093 289.635C479.722 293.75 479.887 297.891 480.584 301.968C480.649 302.166 480.669 302.375 480.641 302.581C480.613 302.787 480.539 302.985 480.423 303.162C480.213 303.356 479.936 303.475 479.641 303.498C478.101 303.723 476.611 302.99 475.215 302.341C470.95 300.359 466.398 298.969 461.703 298.213C463.538 295.738 464.953 293.013 465.9 290.136C466.438 288.308 466.861 286.453 467.168 284.58L468.653 276.564C469.256 273.634 469.682 270.674 469.926 267.699C470.038 266.583 469.969 265.457 469.719 264.36C469.377 263.316 468.923 262.307 468.363 261.348C465.917 256.597 464.769 251.174 465.732 245.979C466.153 243.706 466.972 241.429 466.63 239.144C466.302 236.947 466.643 235.24 466.039 233.066C463.56 224.138 465.845 229.867 467.456 231.412Z" fill="white"/>
<path d="M421.816 251.638C420.7 253.799 418.836 255.64 418.201 257.964C417.954 259.051 417.848 260.161 417.886 261.271C417.776 262.944 417.953 264.622 418.411 266.243C418.765 267.268 419.342 268.213 419.757 269.218C420.336 270.622 420.593 272.123 420.514 273.626C420.402 275.708 419.644 277.728 419.585 279.812C419.492 283.088 421.115 286.168 422.699 289.093C423.098 288.171 423.707 287.342 424.485 286.663C425.263 285.985 426.19 285.473 427.201 285.163C428.213 284.854 429.285 284.755 430.342 284.873C431.399 284.991 432.416 285.323 433.321 285.846C433.684 285.43 433.856 284.897 433.8 284.364C433.917 280.562 434.03 276.761 434.139 272.96C434.31 267.081 434.474 261.123 433.025 255.399C432.371 252.815 431.354 250.241 429.488 248.237C428.506 247.181 425.171 244.401 423.559 245.583C422.834 246.115 423.003 247.563 422.888 248.295C422.715 249.454 422.353 250.581 421.816 251.638Z" fill="white"/>
<path d="M490.902 245.41C491.351 246.969 491.543 248.582 491.471 250.194C491.493 253.48 491.446 256.765 491.332 260.05C491.349 261.735 491.118 263.415 490.646 265.041C490.286 266.098 489.73 267.09 489.358 268.144C488.243 271.303 488.852 274.728 488.948 278.053C489.015 279.129 488.917 280.208 488.656 281.258C488.067 283.319 486.486 284.984 485.383 286.852C484.335 288.626 483.702 290.614 482.451 292.268C481.199 293.923 479.032 295.234 476.932 294.726C475.34 294.341 474.21 293.026 473.427 291.676C471.721 288.708 471.137 285.289 471.771 281.972C472.556 277.937 475.095 274.358 476.01 270.347C477.267 264.839 475.357 259.155 475.413 253.523C475.388 252.641 475.516 251.76 475.793 250.916C476.273 249.629 477.305 248.602 478.258 247.57C479.448 246.281 480.554 244.926 481.57 243.512C482.252 242.562 483.178 240.119 484.387 239.916C487.087 239.463 490.232 243.463 490.902 245.41Z" fill="white"/>
<path d="M407.806 300.312C406.313 299.961 404.774 299.809 403.236 299.858C401.619 299.942 400.04 300.345 398.604 301.043C397.167 301.74 395.906 302.715 394.905 303.902C393.903 305.09 393.184 306.463 392.794 307.93C392.405 309.398 392.355 310.925 392.647 312.412C393.019 314.023 393.629 315.578 394.457 317.032C395.669 319.329 397.123 321.62 399.367 323.091C400.718 323.901 402.174 324.548 403.699 325.017L415.516 329.173C417.255 329.785 418.993 330.396 420.749 330.963C429.569 333.81 438.764 335.517 448.08 336.036C450.914 336.284 453.773 336.149 456.566 335.635C457.241 335.553 457.86 335.24 458.304 334.758C458.529 334.392 458.662 333.982 458.692 333.561L459.419 328.808C459.582 328.146 459.561 327.456 459.357 326.804C459.024 326.005 458.189 325.503 457.393 325.076C449.624 320.91 440.553 318.612 434.014 312.894C432.475 311.548 431.187 309.414 429.316 308.5C427.195 307.463 424.697 306.871 422.505 305.916C417.712 303.827 413 301.427 407.806 300.312Z" fill="#2F2E41"/>
<path opacity="0.1" d="M419.603 306.719C423.78 307.941 441.415 316.407 444.437 319.363C444.032 319.499 430.286 312.307 429.873 312.191C426.092 311.222 422.39 310.003 418.793 308.545C418.077 308.236 414.14 306.782 414.318 305.938C414.519 304.986 418.862 306.502 419.603 306.719Z" fill="black"/>
<path d="M471.712 338.501C471.949 338.517 472.184 338.453 472.374 338.319C472.457 338.219 472.518 338.105 472.554 337.983C472.589 337.861 472.598 337.733 472.581 337.608L472.561 331.133C470.567 330.246 468.336 329.961 466.147 329.688L455.93 328.413C456.165 328.442 454.333 332.521 454.614 333.066C455.109 334.026 458.893 334.876 459.961 335.33C463.673 336.905 467.53 338.637 471.712 338.501Z" fill="#A0616A"/>
<path d="M439.658 331.11C437.729 331.397 435.576 331.651 434.327 333.053C432.743 334.831 433.417 337.481 434.173 339.683C434.219 339.968 434.326 340.24 434.487 340.485C434.648 340.731 434.86 340.943 435.11 341.11C435.361 341.278 435.644 341.396 435.945 341.459C436.245 341.522 436.556 341.528 436.859 341.477C438.618 341.581 440.49 341.663 442.027 340.857C442.724 340.428 443.394 339.962 444.035 339.464C445.169 338.76 446.414 338.228 447.726 337.888C450.138 337.18 452.621 336.702 455.136 336.462C456.127 336.42 457.108 336.259 458.055 335.982C458.528 335.84 458.959 335.598 459.316 335.274C459.672 334.951 459.944 334.556 460.11 334.119C460.467 332.942 459.734 331.742 459.032 330.71C458.222 329.359 457.171 328.146 455.924 327.125C454.021 325.744 453.079 326.804 451.162 327.688C447.532 329.36 443.655 330.514 439.658 331.11Z" fill="#A0616A"/>
<path d="M434.617 332.733L422.369 329.353C420.9 328.875 419.365 328.597 417.812 328.528C417.034 328.498 416.258 328.624 415.536 328.896C414.814 329.169 414.163 329.582 413.626 330.109C412.676 331.149 412.404 332.572 412.167 333.921L411.661 336.807C411.323 338.262 411.228 339.757 411.377 341.24C411.459 341.981 411.72 342.695 412.142 343.328C412.564 343.961 413.134 344.495 413.811 344.891C415.505 345.754 417.583 345.333 419.474 344.972C423.295 344.242 427.181 343.853 431.081 343.81C432.547 343.793 434.085 343.81 435.38 343.169C436.132 342.753 436.764 342.172 437.22 341.476C437.677 340.78 437.944 339.99 438 339.176C438.241 336.71 437.36 333.49 434.617 332.733Z" fill="#2F2E41"/>
<path d="M476.526 329.787C478.114 329.527 479.515 328.685 481.037 328.188C483.178 327.488 485.499 327.488 487.768 327.495C488.602 327.424 489.44 327.581 490.181 327.947C491.18 328.568 491.436 329.811 491.606 330.921L492.632 337.616C492.906 338.865 492.934 340.151 492.715 341.409C492.415 342.65 491.509 343.846 490.19 344.166C488.588 344.555 487.018 343.6 485.506 342.972C481.727 341.404 477.333 341.805 473.392 340.633C473.015 340.562 472.659 340.418 472.346 340.209C472.034 340 471.772 339.732 471.579 339.422C471.444 339.05 471.396 338.656 471.438 338.265C471.505 336.113 471.019 333.174 471.713 331.117C472.337 329.268 474.754 329.787 476.526 329.787Z" fill="#2F2E41"/>
<path d="M502.445 297.617C504.893 297.044 507.43 296.882 509.938 297.139C511.941 297.345 514.004 297.865 515.467 299.16C517.247 300.735 517.819 303.172 517.866 305.461C517.945 310.022 516.325 314.466 513.283 318.035C512.541 318.937 511.657 319.731 510.663 320.39C509.59 321.016 508.447 321.531 507.254 321.924L480.79 331.669C473.828 334.233 466.842 336.804 459.58 338.495C459.382 338.584 459.166 338.636 458.946 338.646C458.725 338.657 458.505 338.626 458.298 338.556C458.091 338.486 457.901 338.377 457.739 338.238C457.577 338.098 457.447 337.929 457.356 337.742C455.037 334.65 453.092 331.327 451.556 327.836C451.483 327.753 451.433 327.655 451.409 327.55C451.386 327.445 451.389 327.336 451.42 327.233C451.451 327.13 451.509 327.035 451.587 326.957C451.666 326.878 451.763 326.819 451.872 326.783L470.589 316.742C471.962 316.074 473.241 315.25 474.399 314.291C475.208 313.559 475.871 312.698 476.355 311.749C476.743 310.992 476.779 309.206 477.275 308.647C477.76 308.1 479.42 308.056 480.187 307.841C481.268 307.531 482.327 307.158 483.357 306.722C487.544 304.973 491.272 302.432 495.286 300.384C497.537 299.182 499.943 298.252 502.445 297.617Z" fill="#2F2E41"/>
<path opacity="0.1" d="M491.834 305.116C488.618 307.371 484.454 309.444 481.267 311.758C480.179 312.548 462.046 322.067 461.79 323.331C464.763 323.799 483.705 311.427 486.415 310.192C489.125 308.958 491.527 307.217 493.908 305.489C494.514 305.048 497.085 303.724 495.344 303.232C494.363 302.955 492.558 304.665 491.834 305.116Z" fill="black"/>
<path d="M469.707 231.631H441.478C440.331 231.631 439.231 232.056 438.42 232.813C437.609 233.57 437.154 234.597 437.154 235.668V237.147H436.847V240.453H437.154V242.768H436.847V244.751H437.154V269.148C437.154 270.219 437.609 271.246 438.42 272.003C439.231 272.76 440.331 273.185 441.478 273.185H469.707C470.854 273.185 471.954 272.76 472.765 272.003C473.576 271.246 474.031 270.219 474.031 269.148V235.668C474.031 234.597 473.575 233.57 472.765 232.813C471.954 232.056 470.854 231.631 469.707 231.631Z" fill="#D0CDE1"/>
<path d="M474.193 200.445L459.876 193.443L440.104 196.308L436.013 213.177L446.196 212.81L449.041 206.613V212.709L453.74 212.54L456.467 202.673L458.171 213.177L474.875 212.858L474.193 200.445Z" fill="#2F2E41"/>
<path d="M425.562 295.432C426.209 296.46 427.13 297.315 428.234 297.914C428.959 298.223 429.749 298.374 430.545 298.354C431.342 298.334 432.122 298.144 432.828 297.799C434.238 297.094 435.391 296.014 436.144 294.696C437.7 292.13 438.022 289.061 437.828 286.118C437.634 283.175 436.961 280.278 436.663 277.343C436.446 275.209 436.429 273.063 436.411 270.919C436.357 270.469 436.459 270.014 436.7 269.62C437.116 269.234 437.654 268.983 438.235 268.905C441.376 268.034 443.46 265.285 444.955 262.563C445.952 260.746 446.82 258.759 446.628 256.725C446.435 254.69 444.869 252.64 442.693 252.433C440.899 252.262 439.242 253.326 437.948 254.498C434.683 257.475 432.585 261.39 431.99 265.615C431.706 267.683 431.788 269.808 431.185 271.816C429.898 276.104 425.872 278.734 423.866 282.592C421.655 286.844 422.875 291.67 425.562 295.432Z" fill="#A0616A"/>
<path d="M484.806 279.05C484.348 280.045 483.681 280.943 482.845 281.693C482.009 282.443 481.021 283.029 479.938 283.417C478.593 283.921 477.108 284.006 475.707 283.659C475.012 283.479 474.371 283.151 473.833 282.703C473.296 282.254 472.876 281.695 472.607 281.07C472.393 280.441 472.275 279.786 472.258 279.126C472.057 276.234 472.135 273.254 473.26 270.554C473.693 269.512 474.279 268.524 474.621 267.453C474.957 266.216 475.13 264.945 475.134 263.669L475.503 255.779C475.565 255.207 475.522 254.628 475.378 254.069C475.009 252.927 473.866 252.185 472.818 251.504C470.285 249.86 467.783 247.941 466.556 245.299C466.134 244.504 465.983 243.607 466.123 242.729C466.469 241.162 468.163 240.148 469.836 239.806C470.932 239.583 472.064 239.569 473.165 239.764C474.266 239.96 475.314 240.362 476.244 240.946C477.174 241.53 477.969 242.284 478.579 243.162C479.189 244.04 479.602 245.024 479.794 246.056C479.96 246.946 479.957 247.855 480.054 248.755C480.26 250.662 480.908 252.501 481.314 254.38C482.313 259.009 481.796 263.793 482.784 268.422C483.61 272.291 486.726 274.816 484.806 279.05Z" fill="#A0616A"/>
<path d="M455.97 249.38C457.926 249.38 459.512 247.9 459.512 246.074C459.512 244.248 457.926 242.768 455.97 242.768C454.014 242.768 452.429 244.248 452.429 246.074C452.429 247.9 454.014 249.38 455.97 249.38Z" fill="#00002E"/>
<path d="M109.314 384.109L104.053 379.334L93.4868 382.398L94.5016 393.82L116.226 392.878L109.552 384.411L109.314 384.109Z" fill="#FBBEBE"/>
<path d="M97.8064 384.011C107.134 384.011 114.696 376.951 114.696 368.242C114.696 359.533 107.134 352.473 97.8064 352.473C88.4789 352.473 80.9174 359.533 80.9174 368.242C80.9174 376.951 88.4789 384.011 97.8064 384.011Z" fill="#FBBEBE"/>
<path d="M202.655 404.348C202.655 404.348 223.403 437.64 228.341 442.638C230.69 445.097 233.191 447.425 235.834 449.61C235.834 449.61 233.512 456.799 229.815 456.542C227.707 456.424 225.641 455.948 223.716 455.139C223.716 455.139 222.066 451.145 219.187 449.394C216.309 447.642 192.793 426.042 193.342 419.138C193.892 412.234 202.655 404.348 202.655 404.348Z" fill="#2F2E41"/>
<path d="M128.763 451.857C128.763 451.857 150.886 467.889 180.951 452.824L183.542 451.044C183.542 451.044 179.169 460.228 178.764 462.718C178.293 465.605 166.909 482.517 165.052 483.327C163.194 484.138 162.784 484.885 162.784 484.885L170.668 492.987L173.583 490.984C173.583 490.984 184.949 475.949 188.273 473.199C191.597 470.449 207.435 442.085 207.435 442.085C207.435 442.085 213.491 431.398 198.378 430.594C183.266 429.791 176.312 433.636 176.312 433.636L149.491 437.614L128.763 451.857Z" fill="#2F2E41"/>
<path d="M236.09 448.035L247.28 455.263C247.28 455.263 261.555 459.439 252.762 462.218C243.968 464.997 220.795 466.003 220.27 462.168C219.744 458.334 221.184 452.299 222.34 452.629C223.496 452.959 231.52 454.905 236.09 448.035Z" fill="#2F2E41"/>
<path d="M174.573 488.501L176.644 499.119C176.644 499.119 182.533 509.635 175.462 506.372C168.392 503.109 153.824 490.716 155.975 488.117C158.126 485.519 162.874 482.701 163.356 483.548C163.838 484.395 167.407 490.064 174.573 488.501Z" fill="#2F2E41"/>
<path d="M153.237 441.1C153.237 441.1 138.199 457.493 129.069 453.511C119.938 449.529 82.5857 403.406 86.8508 394.882C91.1158 386.358 92.5459 388.172 92.5459 388.172L111.832 389.837L106.283 381.53C106.283 381.53 108.874 379.75 111.343 382.249C113.812 384.748 123.724 390.989 127.178 399.804C130.631 408.619 140.769 408.179 140.769 408.179L153.237 441.1Z" fill="white"/>
<path d="M213.966 407.298L187.898 433.134L164.546 394.639L186.746 369.596L213.966 407.298Z" fill="#3F3D56"/>
<path d="M211.999 407.018L188.454 429.722L167.119 394.736L186.685 371.736L211.999 407.018Z" fill="white"/>
<path d="M186.621 432.147L187.898 433.134L187.079 434.629L150.627 444.758L150.283 443.592L151.941 441.991L186.621 432.147Z" fill="#B3B3B3"/>
<path d="M188.222 432.912L150.475 443.931L127.465 403.336L164.546 394.639L188.222 432.912Z" fill="#D0CDE1"/>
<path d="M185.38 427.406L183.761 428.518L165.787 399.38L167.645 398.57L185.38 427.406Z" fill="#3F3D56"/>
<path d="M181.664 429.026L165.697 433.471L147.57 403.506L163.367 400.111L181.664 429.026Z" fill="#3F3D56"/>
<path d="M136.68 406.793L139.986 405.92C139.986 405.92 158.423 403.974 158.692 409.383C158.962 414.792 137.512 412.282 137.512 412.282L134.652 408.653L136.68 406.793Z" fill="#FBBEBE"/>
<path d="M152.851 431.11L157.453 429.347C157.453 429.347 171.343 423.532 167.358 419.744C163.374 415.955 151.085 422.534 151.085 422.534L148.732 424.617L152.851 431.11Z" fill="#FBBEBE"/>
<path d="M148.75 422.74C148.75 422.74 156.243 429.712 154.538 431.349C152.833 432.987 124.876 454.527 117.946 447.635C111.016 440.743 77.2509 406.14 90.3894 403.172C103.528 400.205 106.999 407.143 106.999 407.143L124.344 434.848L148.75 422.74Z" fill="white"/>
<path d="M126.316 401.561L138.623 405.458L138.422 413.754L125.406 412.443L126.316 401.561Z" fill="white"/>
<path opacity="0.2" d="M137.409 427.037L124.148 434.284L108.998 412.528L123.622 430.449L137.409 427.037Z" fill="black"/>
<path d="M88.5669 382.462C99.6711 382.462 108.673 374.057 108.673 363.69C108.673 353.322 99.6711 344.917 88.5669 344.917C77.4626 344.917 68.4608 353.322 68.4608 363.69C68.4608 374.057 77.4626 382.462 88.5669 382.462Z" fill="#2F2E41"/>
<path d="M199.031 408.936L184.953 389.707L190.921 382.81L205.549 402.593L199.031 408.936Z" fill="#00002E"/>
<path d="M198.634 416.667L177.201 387.575L178.259 386.383L199.591 415.543L198.634 416.667Z" fill="#E6E6E6"/>
<path d="M195.872 419.497L174.44 390.405L175.497 389.213L196.829 418.374L195.872 419.497Z" fill="#E6E6E6"/>
<path d="M193.52 421.579L172.087 392.488L173.144 391.295L194.476 420.456L193.52 421.579Z" fill="#E6E6E6"/>
<path d="M184.974 344.083L183.846 344.005C183.802 344.552 183.771 345.103 183.734 345.652L178.673 345.494L183.982 354.782L189.944 345.846L184.864 345.687C184.901 345.152 184.931 344.616 184.974 344.083Z" fill="#3F3D56"/>
<path d="M214.659 268.369L215.558 269.01C216.907 267.361 218.315 265.715 219.744 264.117L218.876 263.441C217.437 265.05 216.018 266.708 214.659 268.369Z" fill="#3F3D56"/>
<path d="M223.322 258.69L224.157 259.402C225.657 257.868 227.215 256.345 228.786 254.874L227.985 254.128C226.402 255.61 224.833 257.145 223.322 258.69Z" fill="#3F3D56"/>
<path d="M232.858 249.762L233.623 250.54C235.264 249.133 236.958 247.744 238.658 246.41L237.931 245.602C236.218 246.945 234.511 248.345 232.858 249.762Z" fill="#3F3D56"/>
<path d="M206.941 278.728L207.896 279.292C209.085 277.536 210.333 275.78 211.606 274.071L210.678 273.468C209.395 275.189 208.138 276.959 206.941 278.728Z" fill="#3F3D56"/>
<path d="M243.194 241.654L243.882 242.492C245.649 241.225 247.467 239.98 249.285 238.792L248.637 237.927C246.805 239.124 244.973 240.378 243.194 241.654Z" fill="#3F3D56"/>
<path d="M200.23 289.687L201.236 290.169C202.255 288.32 203.332 286.466 204.438 284.661L203.456 284.137C202.342 285.955 201.256 287.823 200.23 289.687Z" fill="#3F3D56"/>
<path d="M189.322 319.407L188.228 319.143C187.669 321.169 187.151 323.235 186.69 325.284L187.796 325.501C188.255 323.468 188.768 321.417 189.322 319.407Z" fill="#3F3D56"/>
<path d="M254.249 234.429L254.856 235.32C256.73 234.207 258.657 233.117 260.584 232.082L260.019 231.166C258.078 232.21 256.137 233.308 254.249 234.429Z" fill="#3F3D56"/>
<path d="M186.562 331.654L185.446 331.482C185.083 333.544 184.764 335.644 184.498 337.725L185.621 337.85C185.885 335.785 186.202 333.7 186.562 331.654Z" fill="#3F3D56"/>
<path d="M194.586 301.165L195.633 301.562C196.472 299.635 197.369 297.699 198.299 295.807L197.271 295.366C196.334 297.272 195.43 299.223 194.586 301.165Z" fill="#3F3D56"/>
<path d="M190.056 313.073L191.138 313.382C191.79 311.389 192.499 309.385 193.244 307.424L192.179 307.071C191.427 309.046 190.713 311.066 190.056 313.073Z" fill="#3F3D56"/>
<path d="M330.747 213.385C332.964 213.313 335.221 213.284 337.454 213.304L337.464 212.248C335.215 212.228 332.94 212.257 330.708 212.329L330.747 213.385Z" fill="#3F3D56"/>
<path d="M265.938 228.146L266.458 229.084C268.433 228.128 270.454 227.203 272.467 226.332L271.991 225.374C269.964 226.251 267.927 227.184 265.938 228.146Z" fill="#3F3D56"/>
<path d="M357.506 214.701C359.712 214.993 361.938 215.334 364.123 215.716L364.331 214.678C362.13 214.293 359.887 213.949 357.664 213.655L357.506 214.701Z" fill="#3F3D56"/>
<path d="M370.686 217.003C372.852 217.476 375.038 218.001 377.181 218.563L377.487 217.547C375.327 216.98 373.126 216.451 370.944 215.975L370.686 217.003Z" fill="#3F3D56"/>
<path d="M383.594 220.392C385.705 221.042 387.832 221.746 389.913 222.485L390.315 221.498C388.218 220.754 386.076 220.044 383.948 219.389L383.594 220.392Z" fill="#3F3D56"/>
<path d="M344.158 213.496C346.385 213.605 348.635 213.761 350.847 213.961L350.956 212.91C348.728 212.709 346.461 212.551 344.218 212.441L344.158 213.496Z" fill="#3F3D56"/>
<path d="M317.245 213.317L317.383 214.365C319.587 214.112 321.831 213.901 324.052 213.738L323.964 212.685C321.726 212.849 319.465 213.062 317.245 213.317Z" fill="#3F3D56"/>
<path d="M290.864 218.599L291.198 219.608C293.323 218.993 295.492 218.416 297.644 217.89L297.358 216.869C295.19 217.398 293.005 217.98 290.864 218.599Z" fill="#3F3D56"/>
<path d="M278.169 222.856L278.598 223.833C280.654 223.046 282.754 222.292 284.84 221.592L284.458 220.598C282.356 221.303 280.24 222.063 278.169 222.856Z" fill="#3F3D56"/>
<path d="M303.929 215.41L304.166 216.442C306.339 216.007 308.554 215.612 310.75 215.267L310.562 214.225C308.35 214.573 306.118 214.972 303.929 215.41Z" fill="#3F3D56"/>
<path d="M406.787 229.013L400.467 220.294L398.245 224.564C397.707 224.34 397.172 224.111 396.635 223.894L396.186 224.863C396.71 225.075 397.229 225.297 397.751 225.514L395.539 229.765L406.787 229.013Z" fill="#3F3D56"/>
</g>
<defs>
<filter id="filter0_f_302_81" x="0" y="0" width="628" height="628" filterUnits="userSpaceOnUse" color-interpolation-filters="sRGB">
<feFlood flood-opacity="0" result="BackgroundImageFix"/>
<feBlend mode="normal" in="SourceGraphic" in2="BackgroundImageFix" result="shape"/>
<feGaussianBlur stdDeviation="2" result="effect1_foregroundBlur_302_81"/>
</filter>
<clipPath id="clip0_302_81">
<rect width="512" height="386" fill="white" transform="translate(61 121)"/>
</clipPath>
</defs>
</svg>
